<svg width="320" height="320" viewBox="0 0 320 320" fill="none" xmlns="http://www.w3.org/2000/svg">
<circle cx="160" cy="160" r="131" fill="#FCFCFC" stroke="url(#paint0_linear_2_58)" stroke-width="8"/>
<path d="M96.1934 244C95.847 244 95.5934 243.92 95.4326 243.759C95.2718 243.598 95.1914 243.351 95.1914 243.017V221.901C95.1914 221.555 95.2718 221.308 95.4326 221.159C95.5934 220.998 95.847 220.918 96.1934 220.918H102.854C105.947 220.918 108.421 221.833 110.276 223.664C112.132 225.495 113.06 228.42 113.06 232.44C113.06 236.485 112.132 239.423 110.276 241.254C108.421 243.085 105.947 244 102.854 244H96.1934ZM102.632 241.495C104.858 241.495 106.652 240.771 108.013 239.324C109.373 237.865 110.054 235.57 110.054 232.44C110.054 230.338 109.732 228.618 109.089 227.282C108.446 225.934 107.567 224.957 106.454 224.351C105.341 223.732 104.067 223.423 102.632 223.423H98.1045V241.495H102.632ZM126.362 244.186C123.628 244.186 121.593 243.474 120.257 242.052C118.934 240.617 118.272 238.427 118.272 235.483C118.272 232.564 118.921 230.35 120.22 228.841C121.519 227.319 123.43 226.559 125.954 226.559C128.205 226.559 129.9 227.288 131.038 228.748C132.188 230.208 132.763 232.348 132.763 235.168C132.763 235.292 132.695 235.465 132.559 235.688C132.435 235.898 132.281 236.09 132.095 236.263C131.922 236.424 131.774 236.504 131.65 236.504H121.241C121.377 238.347 121.847 239.695 122.651 240.549C123.467 241.39 124.692 241.811 126.325 241.811C127.24 241.811 128.026 241.699 128.681 241.477C129.349 241.254 129.992 240.982 130.611 240.66C130.673 240.635 130.765 240.592 130.889 240.53C131.013 240.468 131.099 240.438 131.149 240.438C131.285 240.438 131.44 240.549 131.613 240.771C131.798 240.982 131.953 241.223 132.077 241.495C132.213 241.755 132.281 241.947 132.281 242.07C132.281 242.342 132.009 242.646 131.464 242.979C130.92 243.313 130.19 243.598 129.275 243.833C128.372 244.068 127.401 244.186 126.362 244.186ZM129.813 234.129C129.813 230.665 128.496 228.934 125.861 228.934C123.028 228.934 121.488 230.665 121.241 234.129H129.813ZM139.961 250.865C139.07 250.865 138.625 250.624 138.625 250.142V231.754C138.625 230.319 138.557 229.286 138.421 228.655C138.285 228.012 138.217 227.66 138.217 227.598C138.217 227.326 138.421 227.134 138.829 227.022C139.25 226.899 139.645 226.837 140.017 226.837C140.326 226.837 140.555 227.004 140.703 227.338C140.852 227.672 140.957 228.012 141.019 228.358C141.093 228.705 141.142 228.927 141.167 229.026C142.738 227.381 144.488 226.559 146.418 226.559C147.741 226.559 148.886 226.936 149.851 227.69C150.815 228.445 151.551 229.49 152.059 230.826C152.566 232.162 152.819 233.684 152.819 235.391C152.819 237.246 152.535 238.836 151.966 240.159C151.409 241.483 150.624 242.485 149.609 243.165C148.595 243.845 147.426 244.186 146.103 244.186C145.15 244.186 144.303 244.043 143.561 243.759C142.831 243.474 142.107 243.06 141.39 242.516V250.142C141.39 250.624 140.957 250.865 140.091 250.865H139.961ZM145.472 241.755C146.944 241.718 148.051 241.18 148.793 240.141C149.535 239.102 149.906 237.592 149.906 235.613C149.906 233.486 149.554 231.847 148.849 230.696C148.156 229.534 147.154 228.952 145.843 228.952C145.113 228.952 144.352 229.15 143.561 229.546C142.781 229.942 142.058 230.505 141.39 231.234V240.271C142.602 241.26 143.963 241.755 145.472 241.755ZM165.695 244.186C163.208 244.186 161.31 243.443 159.998 241.959C158.7 240.462 158.05 238.291 158.05 235.446C158.05 232.601 158.712 230.412 160.036 228.878C161.359 227.332 163.246 226.559 165.695 226.559C168.119 226.559 169.975 227.326 171.261 228.859C172.548 230.381 173.191 232.576 173.191 235.446C173.191 238.304 172.554 240.475 171.28 241.959C170.018 243.443 168.156 244.186 165.695 244.186ZM165.602 241.811C167.21 241.811 168.398 241.291 169.164 240.252C169.931 239.201 170.315 237.58 170.315 235.391C170.315 233.189 169.931 231.562 169.164 230.511C168.398 229.459 167.21 228.934 165.602 228.934C164.006 228.934 162.831 229.459 162.077 230.511C161.322 231.55 160.945 233.176 160.945 235.391C160.945 237.592 161.316 239.213 162.058 240.252C162.813 241.291 163.994 241.811 165.602 241.811ZM184.322 244.186C183.221 244.186 182.238 243.852 181.372 243.184C180.506 242.516 180.073 241.334 180.073 239.64V229.119H178.422C178.187 229.119 178.014 229.045 177.902 228.896C177.803 228.736 177.754 228.482 177.754 228.136V227.728C177.754 227.381 177.803 227.134 177.902 226.985C178.014 226.825 178.187 226.744 178.422 226.744H180.073L180.463 223.293C180.488 222.811 180.84 222.569 181.52 222.569H181.836C182.182 222.569 182.436 222.631 182.597 222.755C182.757 222.866 182.838 223.046 182.838 223.293V226.744H185.602C185.837 226.744 186.004 226.825 186.103 226.985C186.215 227.134 186.27 227.381 186.27 227.728V228.136C186.27 228.482 186.215 228.736 186.103 228.896C186.004 229.045 185.837 229.119 185.602 229.119H182.838V239.38C182.838 240.283 182.992 240.914 183.302 241.272C183.623 241.631 184.056 241.811 184.601 241.811C185.021 241.811 185.343 241.786 185.565 241.736C185.8 241.687 185.955 241.662 186.029 241.662C186.227 241.662 186.388 241.86 186.512 242.256C186.648 242.652 186.716 242.967 186.716 243.202C186.716 243.858 185.918 244.186 184.322 244.186ZM193.561 222.588C192.683 222.588 192.244 222.347 192.244 221.864V219.916C192.244 219.434 192.683 219.192 193.561 219.192H193.951C194.841 219.192 195.287 219.434 195.287 219.916V221.864C195.287 222.347 194.841 222.588 193.951 222.588H193.561ZM193.691 244.056C192.813 244.056 192.373 243.814 192.373 243.332V227.412C192.373 226.93 192.813 226.688 193.691 226.688H193.821C194.711 226.688 195.157 226.93 195.157 227.412V243.332C195.157 243.814 194.711 244.056 193.821 244.056H193.691ZM204.525 244.056C204.068 244.056 203.734 244 203.523 243.889C203.313 243.765 203.208 243.579 203.208 243.332V229.119H201.891C201.445 229.119 201.223 228.791 201.223 228.136V227.728C201.223 227.072 201.445 226.744 201.891 226.744H203.208V223.608C203.208 221.877 203.635 220.689 204.488 220.046C205.354 219.39 206.344 219.062 207.457 219.062C209.065 219.062 209.869 219.396 209.869 220.064C209.869 220.176 209.838 220.361 209.776 220.621C209.727 220.868 209.646 221.091 209.535 221.289C209.436 221.487 209.319 221.586 209.183 221.586C209.108 221.586 208.954 221.561 208.719 221.512C208.484 221.462 208.162 221.438 207.754 221.438C207.383 221.438 207.067 221.493 206.808 221.604C206.56 221.716 206.356 221.951 206.195 222.31C206.047 222.668 205.973 223.188 205.973 223.868V226.744H208.849C209.084 226.744 209.251 226.825 209.349 226.985C209.461 227.134 209.516 227.381 209.516 227.728V228.136C209.516 228.482 209.461 228.736 209.349 228.896C209.251 229.045 209.084 229.119 208.849 229.119H205.973V243.332C205.973 243.579 205.867 243.765 205.657 243.889C205.447 244 205.119 244.056 204.674 244.056H204.525ZM216.51 250.865C215.793 250.865 215.434 250.686 215.434 250.327C215.434 250.241 215.483 250.061 215.582 249.789L218.347 243.072L212.577 227.672C212.564 227.622 212.546 227.554 212.521 227.468C212.496 227.369 212.484 227.295 212.484 227.245C212.484 227.072 212.601 226.936 212.836 226.837C213.071 226.738 213.43 226.688 213.912 226.688H214.172C214.914 226.688 215.354 226.862 215.49 227.208L218.848 236.151C219.145 236.931 219.497 238.038 219.906 239.473H219.961L220.351 238.248C220.413 238.062 220.518 237.747 220.666 237.302C220.815 236.844 220.951 236.461 221.075 236.151L224.359 227.208C224.47 226.862 224.922 226.688 225.713 226.688H225.825C226.69 226.688 227.123 226.874 227.123 227.245C227.123 227.332 227.092 227.48 227.031 227.69L218.57 250.179C218.372 250.636 217.852 250.865 217.011 250.865H216.51Z" fill="#303030"/>
<path d="M222.254 88.4203C222.944 88.4154 223.431 89.0946 223.206 89.7469L183.342 205.074C182.991 206.09 181.504 205.913 181.402 204.843L173.74 124.865C173.706 124.507 173.482 124.195 173.154 124.048L99.8324 91.1971C98.8518 90.7577 99.1597 89.2921 100.234 89.2845L222.254 88.4203Z" fill="#D18C8C"/>
<path d="M141.171 146.129C141.843 146.139 142.314 146.796 142.109 147.435L125.935 197.765C125.639 198.685 124.338 198.692 124.034 197.774L113.853 167.093C113.789 166.9 113.668 166.732 113.506 166.609L87.696 147.147C86.9237 146.564 87.3457 145.334 88.3128 145.348L141.171 146.129Z" fill="#D9AFAF"/>
<path d="M96.1934 244C95.847 244 95.5934 243.92 95.4326 243.759C95.2718 243.598 95.1914 243.351 95.1914 243.017V221.901C95.1914 221.555 95.2718 221.308 95.4326 221.159C95.5934 220.998 95.847 220.918 96.1934 220.918H102.854C105.947 220.918 108.421 221.833 110.276 223.664C112.132 225.495 113.06 228.42 113.06 232.44C113.06 236.485 112.132 239.423 110.276 241.254C108.421 243.085 105.947 244 102.854 244H96.1934ZM102.632 241.495C104.858 241.495 106.652 240.771 108.013 239.324C109.373 237.865 110.054 235.57 110.054 232.44C110.054 230.338 109.732 228.618 109.089 227.282C108.446 225.934 107.567 224.957 106.454 224.351C105.341 223.732 104.067 223.423 102.632 223.423H98.1045V241.495H102.632ZM126.362 244.186C123.628 244.186 121.593 243.474 120.257 242.052C118.934 240.617 118.272 238.427 118.272 235.483C118.272 232.564 118.921 230.35 120.22 228.841C121.519 227.319 123.43 226.559 125.954 226.559C128.205 226.559 129.9 227.288 131.038 228.748C132.188 230.208 132.763 232.348 132.763 235.168C132.763 235.292 132.695 235.465 132.559 235.688C132.435 235.898 132.281 236.09 132.095 236.263C131.922 236.424 131.774 236.504 131.65 236.504H121.241C121.377 238.347 121.847 239.695 122.651 240.549C123.467 241.39 124.692 241.811 126.325 241.811C127.24 241.811 128.026 241.699 128.681 241.477C129.349 241.254 129.992 240.982 130.611 240.66C130.673 240.635 130.765 240.592 130.889 240.53C131.013 240.468 131.099 240.438 131.149 240.438C131.285 240.438 131.44 240.549 131.613 240.771C131.798 240.982 131.953 241.223 132.077 241.495C132.213 241.755 132.281 241.947 132.281 242.07C132.281 242.342 132.009 242.646 131.464 242.979C130.92 243.313 130.19 243.598 129.275 243.833C128.372 244.068 127.401 244.186 126.362 244.186ZM129.813 234.129C129.813 230.665 128.496 228.934 125.861 228.934C123.028 228.934 121.488 230.665 121.241 234.129H129.813ZM139.961 250.865C139.07 250.865 138.625 250.624 138.625 250.142V231.754C138.625 230.319 138.557 229.286 138.421 228.655C138.285 228.012 138.217 227.66 138.217 227.598C138.217 227.326 138.421 227.134 138.829 227.022C139.25 226.899 139.645 226.837 140.017 226.837C140.326 226.837 140.555 227.004 140.703 227.338C140.852 227.672 140.957 228.012 141.019 228.358C141.093 228.705 141.142 228.927 141.167 229.026C142.738 227.381 144.488 226.559 146.418 226.559C147.741 226.559 148.886 226.936 149.851 227.69C150.815 228.445 151.551 229.49 152.059 230.826C152.566 232.162 152.819 233.684 152.819 235.391C152.819 237.246 152.535 238.836 151.966 240.159C151.409 241.483 150.624 242.485 149.609 243.165C148.595 243.845 147.426 244.186 146.103 244.186C145.15 244.186 144.303 244.043 143.561 243.759C142.831 243.474 142.107 243.06 141.39 242.516V250.142C141.39 250.624 140.957 250.865 140.091 250.865H139.961ZM145.472 241.755C146.944 241.718 148.051 241.18 148.793 240.141C149.535 239.102 149.906 237.592 149.906 235.613C149.906 233.486 149.554 231.847 148.849 230.696C148.156 229.534 147.154 228.952 145.843 228.952C145.113 228.952 144.352 229.15 143.561 229.546C142.781 229.942 142.058 230.505 141.39 231.234V240.271C142.602 241.26 143.963 241.755 145.472 241.755ZM165.695 244.186C163.208 244.186 161.31 243.443 159.998 241.959C158.7 240.462 158.05 238.291 158.05 235.446C158.05 232.601 158.712 230.412 160.036 228.878C161.359 227.332 163.246 226.559 165.695 226.559C168.119 226.559 169.975 227.326 171.261 228.859C172.548 230.381 173.191 232.576 173.191 235.446C173.191 238.304 172.554 240.475 171.28 241.959C170.018 243.443 168.156 244.186 165.695 244.186ZM165.602 241.811C167.21 241.811 168.398 241.291 169.164 240.252C169.931 239.201 170.315 237.58 170.315 235.391C170.315 233.189 169.931 231.562 169.164 230.511C168.398 229.459 167.21 228.934 165.602 228.934C164.006 228.934 162.831 229.459 162.077 230.511C161.322 231.55 160.945 233.176 160.945 235.391C160.945 237.592 161.316 239.213 162.058 240.252C162.813 241.291 163.994 241.811 165.602 241.811ZM184.322 244.186C183.221 244.186 182.238 243.852 181.372 243.184C180.506 242.516 180.073 241.334 180.073 239.64V229.119H178.422C178.187 229.119 178.014 229.045 177.902 228.896C177.803 228.736 177.754 228.482 177.754 228.136V227.728C177.754 227.381 177.803 227.134 177.902 226.985C178.014 226.825 178.187 226.744 178.422 226.744H180.073L180.463 223.293C180.488 222.811 180.84 222.569 181.52 222.569H181.836C182.182 222.569 182.436 222.631 182.597 222.755C182.757 222.866 182.838 223.046 182.838 223.293V226.744H185.602C185.837 226.744 186.004 226.825 186.103 226.985C186.215 227.134 186.27 227.381 186.27 227.728V228.136C186.27 228.482 186.215 228.736 186.103 228.896C186.004 229.045 185.837 229.119 185.602 229.119H182.838V239.38C182.838 240.283 182.992 240.914 183.302 241.272C183.623 241.631 184.056 241.811 184.601 241.811C185.021 241.811 185.343 241.786 185.565 241.736C185.8 241.687 185.955 241.662 186.029 241.662C186.227 241.662 186.388 241.86 186.512 242.256C186.648 242.652 186.716 242.967 186.716 243.202C186.716 243.858 185.918 244.186 184.322 244.186ZM193.561 222.588C192.683 222.588 192.244 222.347 192.244 221.864V219.916C192.244 219.434 192.683 219.192 193.561 219.192H193.951C194.841 219.192 195.287 219.434 195.287 219.916V221.864C195.287 222.347 194.841 222.588 193.951 222.588H193.561ZM193.691 244.056C192.813 244.056 192.373 243.814 192.373 243.332V227.412C192.373 226.93 192.813 226.688 193.691 226.688H193.821C194.711 226.688 195.157 226.93 195.157 227.412V243.332C195.157 243.814 194.711 244.056 193.821 244.056H193.691ZM204.525 244.056C204.068 244.056 203.734 244 203.523 243.889C203.313 243.765 203.208 243.579 203.208 243.332V229.119H201.891C201.445 229.119 201.223 228.791 201.223 228.136V227.728C201.223 227.072 201.445 226.744 201.891 226.744H203.208V223.608C203.208 221.877 203.635 220.689 204.488 220.046C205.354 219.39 206.344 219.062 207.457 219.062C209.065 219.062 209.869 219.396 209.869 220.064C209.869 220.176 209.838 220.361 209.776 220.621C209.727 220.868 209.646 221.091 209.535 221.289C209.436 221.487 209.319 221.586 209.183 221.586C209.108 221.586 208.954 221.561 208.719 221.512C208.484 221.462 208.162 221.438 207.754 221.438C207.383 221.438 207.067 221.493 206.808 221.604C206.56 221.716 206.356 221.951 206.195 222.31C206.047 222.668 205.973 223.188 205.973 223.868V226.744H208.849C209.084 226.744 209.251 226.825 209.349 226.985C209.461 227.134 209.516 227.381 209.516 227.728V228.136C209.516 228.482 209.461 228.736 209.349 228.896C209.251 229.045 209.084 229.119 208.849 229.119H205.973V243.332C205.973 243.579 205.867 243.765 205.657 243.889C205.447 244 205.119 244.056 204.674 244.056H204.525ZM216.51 250.865C215.793 250.865 215.434 250.686 215.434 250.327C215.434 250.241 215.483 250.061 215.582 249.789L218.347 243.072L212.577 227.672C212.564 227.622 212.546 227.554 212.521 227.468C212.496 227.369 212.484 227.295 212.484 227.245C212.484 227.072 212.601 226.936 212.836 226.837C213.071 226.738 213.43 226.688 213.912 226.688H214.172C214.914 226.688 215.354 226.862 215.49 227.208L218.848 236.151C219.145 236.931 219.497 238.038 219.906 239.473H219.961L220.351 238.248C220.413 238.062 220.518 237.747 220.666 237.302C220.815 236.844 220.951 236.461 221.075 236.151L224.359 227.208C224.47 226.862 224.922 226.688 225.713 226.688H225.825C226.69 226.688 227.123 226.874 227.123 227.245C227.123 227.332 227.092 227.48 227.031 227.69L218.57 250.179C218.372 250.636 217.852 250.865 217.011 250.865H216.51Z" fill="#303030"/>
<path d="M222.254 88.4203C222.944 88.4154 223.431 89.0946 223.206 89.7469L183.342 205.074C182.991 206.09 181.504 205.913 181.402 204.843L173.74 124.865C173.706 124.507 173.482 124.195 173.154 124.048L99.8324 91.1971C98.8518 90.7577 99.1597 89.2921 100.234 89.2845L222.254 88.4203Z" fill="#D18C8C"/>
<path d="M141.171 146.129C141.843 146.139 142.314 146.796 142.109 147.435L125.935 197.765C125.639 198.685 124.338 198.692 124.034 197.774L113.853 167.093C113.789 166.9 113.668 166.732 113.506 166.609L87.696 147.147C86.9237 146.564 87.3457 145.334 88.3128 145.348L141.171 146.129Z" fill="#D9AFAF"/>
<defs>
<linearGradient id="paint0_linear_2_58" x1="-17.9107" y1="304.161" x2="303.196" y2="-34.7857" gradientUnits="userSpaceOnUse">
<stop stop-color="#D88282"/>
<stop offset="1" stop-color="#FFD3D3"/>
</linearGradient>
</defs>
</svg>
