<svg width="719" height="249" viewBox="0 0 719 249" fill="none" xmlns="http://www.w3.org/2000/svg">
<rect y="2" width="719" height="247" fill="#FCFCFC"/>
<path d="M331.29 143C330.771 143 330.39 142.879 330.149 142.638C329.908 142.397 329.787 142.026 329.787 141.525V109.852C329.787 109.333 329.908 108.961 330.149 108.739C330.39 108.498 330.771 108.377 331.29 108.377H341.282C345.92 108.377 349.631 109.75 352.415 112.496C355.198 115.242 356.589 119.63 356.589 125.661C356.589 131.728 355.198 136.135 352.415 138.881C349.631 141.627 345.92 143 341.282 143H331.29ZM340.948 139.243C344.288 139.243 346.978 138.157 349.019 135.986C351.06 133.797 352.081 130.355 352.081 125.661C352.081 122.506 351.598 119.927 350.633 117.923C349.668 115.901 348.351 114.435 346.681 113.526C345.011 112.598 343.1 112.134 340.948 112.134H334.157V139.243H340.948ZM376.543 143.278C372.442 143.278 369.39 142.211 367.386 140.078C365.401 137.925 364.408 134.641 364.408 130.225C364.408 125.846 365.382 122.525 367.33 120.261C369.279 117.979 372.145 116.838 375.93 116.838C379.307 116.838 381.849 117.933 383.556 120.122C385.282 122.312 386.145 125.521 386.145 129.752C386.145 129.938 386.043 130.197 385.839 130.531C385.653 130.847 385.421 131.134 385.143 131.394C384.883 131.635 384.66 131.756 384.475 131.756H368.861C369.065 134.521 369.77 136.543 370.976 137.823C372.201 139.085 374.038 139.716 376.487 139.716C377.86 139.716 379.038 139.549 380.022 139.215C381.024 138.881 381.988 138.473 382.916 137.99C383.009 137.953 383.148 137.888 383.334 137.795C383.519 137.703 383.649 137.656 383.723 137.656C383.927 137.656 384.159 137.823 384.419 138.157C384.697 138.473 384.929 138.834 385.115 139.243C385.319 139.632 385.421 139.92 385.421 140.105C385.421 140.514 385.013 140.968 384.197 141.469C383.38 141.97 382.285 142.397 380.912 142.75C379.558 143.102 378.101 143.278 376.543 143.278ZM381.719 128.193C381.719 122.998 379.743 120.4 375.791 120.4C371.542 120.4 369.232 122.998 368.861 128.193H381.719ZM396.941 153.298C395.605 153.298 394.937 152.936 394.937 152.212V124.631C394.937 122.479 394.835 120.929 394.631 119.983C394.427 119.018 394.325 118.489 394.325 118.396C394.325 117.988 394.631 117.701 395.244 117.534C395.874 117.348 396.468 117.255 397.025 117.255C397.489 117.255 397.832 117.506 398.055 118.007C398.277 118.508 398.435 119.018 398.528 119.538C398.639 120.057 398.713 120.391 398.75 120.54C401.107 118.072 403.732 116.838 406.627 116.838C408.612 116.838 410.329 117.404 411.776 118.536C413.223 119.667 414.327 121.235 415.088 123.239C415.849 125.243 416.229 127.525 416.229 130.086C416.229 132.869 415.802 135.253 414.949 137.239C414.114 139.224 412.935 140.727 411.414 141.748C409.893 142.768 408.139 143.278 406.154 143.278C404.725 143.278 403.454 143.065 402.341 142.638C401.246 142.211 400.161 141.59 399.084 140.773V152.212C399.084 152.936 398.435 153.298 397.136 153.298H396.941ZM405.207 139.632C407.415 139.577 409.076 138.77 410.189 137.211C411.303 135.652 411.859 133.389 411.859 130.42C411.859 127.229 411.331 124.77 410.273 123.044C409.234 121.3 407.731 120.428 405.764 120.428C404.669 120.428 403.528 120.725 402.341 121.319C401.172 121.913 400.086 122.757 399.084 123.852V137.406C400.903 138.89 402.944 139.632 405.207 139.632ZM435.542 143.278C431.813 143.278 428.965 142.165 426.998 139.938C425.049 137.693 424.075 134.437 424.075 130.169C424.075 125.902 425.068 122.618 427.053 120.317C429.039 117.998 431.868 116.838 435.542 116.838C439.179 116.838 441.962 117.988 443.892 120.289C445.821 122.571 446.786 125.865 446.786 130.169C446.786 134.456 445.831 137.712 443.92 139.938C442.027 142.165 439.235 143.278 435.542 143.278ZM435.403 139.716C437.815 139.716 439.596 138.937 440.747 137.378C441.897 135.801 442.472 133.37 442.472 130.086C442.472 126.783 441.897 124.343 440.747 122.766C439.596 121.189 437.815 120.4 435.403 120.4C433.009 120.4 431.247 121.189 430.115 122.766C428.983 124.325 428.417 126.765 428.417 130.086C428.417 133.389 428.974 135.819 430.087 137.378C431.219 138.937 432.991 139.716 435.403 139.716ZM463.483 143.278C461.832 143.278 460.357 142.777 459.058 141.775C457.759 140.773 457.11 139.001 457.11 136.459V120.679H454.633C454.28 120.679 454.02 120.567 453.853 120.345C453.705 120.104 453.631 119.723 453.631 119.204V118.591C453.631 118.072 453.705 117.701 453.853 117.478C454.02 117.237 454.28 117.116 454.633 117.116H457.11L457.694 111.939C457.731 111.216 458.26 110.854 459.281 110.854H459.754C460.273 110.854 460.654 110.947 460.895 111.132C461.136 111.299 461.257 111.568 461.257 111.939V117.116H465.404C465.756 117.116 466.007 117.237 466.155 117.478C466.322 117.701 466.406 118.072 466.406 118.591V119.204C466.406 119.723 466.322 120.104 466.155 120.345C466.007 120.567 465.756 120.679 465.404 120.679H461.257V136.07C461.257 137.424 461.489 138.371 461.953 138.909C462.435 139.447 463.084 139.716 463.901 139.716C464.532 139.716 465.014 139.679 465.348 139.604C465.701 139.53 465.933 139.493 466.044 139.493C466.341 139.493 466.582 139.79 466.767 140.384C466.972 140.978 467.074 141.451 467.074 141.803C467.074 142.787 465.877 143.278 463.483 143.278ZM477.341 110.882C476.024 110.882 475.365 110.52 475.365 109.796V106.874C475.365 106.15 476.024 105.789 477.341 105.789H477.926C479.262 105.789 479.93 106.15 479.93 106.874V109.796C479.93 110.52 479.262 110.882 477.926 110.882H477.341ZM477.536 143.083C476.219 143.083 475.56 142.722 475.56 141.998V118.118C475.56 117.395 476.219 117.033 477.536 117.033H477.731C479.067 117.033 479.735 117.395 479.735 118.118V141.998C479.735 142.722 479.067 143.083 477.731 143.083H477.536ZM493.788 143.083C493.101 143.083 492.6 143 492.285 142.833C491.97 142.647 491.812 142.369 491.812 141.998V120.679H489.836C489.168 120.679 488.834 120.187 488.834 119.204V118.591C488.834 117.608 489.168 117.116 489.836 117.116H491.812V112.413C491.812 109.815 492.452 108.034 493.732 107.069C495.031 106.085 496.515 105.594 498.185 105.594C500.597 105.594 501.804 106.095 501.804 107.097C501.804 107.264 501.757 107.542 501.664 107.932C501.59 108.303 501.47 108.637 501.303 108.934C501.154 109.23 500.978 109.379 500.774 109.379C500.662 109.379 500.43 109.342 500.078 109.268C499.725 109.193 499.243 109.156 498.631 109.156C498.074 109.156 497.601 109.24 497.211 109.407C496.84 109.574 496.534 109.926 496.293 110.464C496.07 111.002 495.959 111.782 495.959 112.802V117.116H500.273C500.625 117.116 500.876 117.237 501.024 117.478C501.191 117.701 501.275 118.072 501.275 118.591V119.204C501.275 119.723 501.191 120.104 501.024 120.345C500.876 120.567 500.625 120.679 500.273 120.679H495.959V141.998C495.959 142.369 495.801 142.647 495.486 142.833C495.17 143 494.679 143.083 494.011 143.083H493.788ZM511.765 153.298C510.689 153.298 510.151 153.029 510.151 152.491C510.151 152.361 510.225 152.092 510.374 151.684L514.521 141.608L505.865 118.508C505.846 118.434 505.818 118.332 505.781 118.202C505.744 118.053 505.726 117.942 505.726 117.868C505.726 117.608 505.902 117.404 506.254 117.255C506.607 117.107 507.145 117.033 507.869 117.033H508.258C509.372 117.033 510.03 117.292 510.234 117.812L515.272 131.227C515.717 132.396 516.246 134.057 516.858 136.209H516.942L517.526 134.372C517.619 134.094 517.777 133.621 518 132.953C518.222 132.266 518.426 131.691 518.612 131.227L523.538 117.812C523.705 117.292 524.382 117.033 525.57 117.033H525.737C527.036 117.033 527.685 117.311 527.685 117.868C527.685 117.998 527.639 118.22 527.546 118.536L514.855 152.268C514.558 152.955 513.778 153.298 512.517 153.298H511.765Z" fill="#303030"/>
<path d="M289.254 71.4203C289.944 71.4154 290.431 72.0946 290.206 72.7469L250.342 188.074C249.991 189.09 248.504 188.913 248.402 187.843L240.74 107.865C240.706 107.507 240.482 107.195 240.154 107.048L166.832 74.1971C165.852 73.7577 166.16 72.2921 167.234 72.2845L289.254 71.4203Z" fill="#D18C8C"/>
<path d="M208.171 129.129C208.843 129.139 209.314 129.796 209.109 130.435L192.935 180.765C192.639 181.685 191.338 181.692 191.033 180.774L180.853 150.093C180.789 149.9 180.668 149.732 180.506 149.609L154.696 130.147C153.924 129.564 154.346 128.334 155.313 128.348L208.171 129.129Z" fill="#D9AFAF"/>
<line x1="325" y1="167" x2="531" y2="167" stroke="#DBDBDB" stroke-width="2"/>
</svg>
