<svg width="719" height="247" viewBox="0 0 719 247" fill="none" xmlns="http://www.w3.org/2000/svg">
<rect width="719" height="247" fill="#FCFCFC"/>
<path d="M330.29 149C329.771 149 329.39 148.879 329.149 148.638C328.908 148.397 328.787 148.026 328.787 147.525V115.852C328.787 115.333 328.908 114.961 329.149 114.739C329.39 114.498 329.771 114.377 330.29 114.377H340.282C344.92 114.377 348.631 115.75 351.415 118.496C354.198 121.242 355.589 125.63 355.589 131.661C355.589 137.728 354.198 142.135 351.415 144.881C348.631 147.627 344.92 149 340.282 149H330.29ZM339.948 145.243C343.288 145.243 345.978 144.157 348.019 141.986C350.06 139.797 351.081 136.355 351.081 131.661C351.081 128.506 350.598 125.927 349.633 123.923C348.668 121.901 347.351 120.435 345.681 119.526C344.011 118.598 342.1 118.134 339.948 118.134H333.157V145.243H339.948ZM375.543 149.278C371.442 149.278 368.39 148.211 366.386 146.078C364.401 143.925 363.408 140.641 363.408 136.225C363.408 131.846 364.382 128.525 366.33 126.261C368.279 123.979 371.145 122.838 374.93 122.838C378.307 122.838 380.849 123.933 382.556 126.122C384.282 128.312 385.145 131.521 385.145 135.752C385.145 135.938 385.043 136.197 384.839 136.531C384.653 136.847 384.421 137.134 384.143 137.394C383.883 137.635 383.66 137.756 383.475 137.756H367.861C368.065 140.521 368.77 142.543 369.976 143.823C371.201 145.085 373.038 145.716 375.487 145.716C376.86 145.716 378.038 145.549 379.022 145.215C380.024 144.881 380.988 144.473 381.916 143.99C382.009 143.953 382.148 143.888 382.334 143.795C382.519 143.703 382.649 143.656 382.723 143.656C382.927 143.656 383.159 143.823 383.419 144.157C383.697 144.473 383.929 144.834 384.115 145.243C384.319 145.632 384.421 145.92 384.421 146.105C384.421 146.514 384.013 146.968 383.197 147.469C382.38 147.97 381.285 148.397 379.912 148.75C378.558 149.102 377.101 149.278 375.543 149.278ZM380.719 134.193C380.719 128.998 378.743 126.4 374.791 126.4C370.542 126.4 368.232 128.998 367.861 134.193H380.719ZM395.941 159.298C394.605 159.298 393.937 158.936 393.937 158.212V130.631C393.937 128.479 393.835 126.929 393.631 125.983C393.427 125.018 393.325 124.489 393.325 124.396C393.325 123.988 393.631 123.701 394.244 123.534C394.874 123.348 395.468 123.255 396.025 123.255C396.489 123.255 396.832 123.506 397.055 124.007C397.277 124.508 397.435 125.018 397.528 125.538C397.639 126.057 397.713 126.391 397.75 126.54C400.107 124.072 402.732 122.838 405.627 122.838C407.612 122.838 409.329 123.404 410.776 124.536C412.223 125.667 413.327 127.235 414.088 129.239C414.849 131.243 415.229 133.525 415.229 136.086C415.229 138.869 414.802 141.253 413.949 143.239C413.114 145.224 411.935 146.727 410.414 147.748C408.893 148.768 407.139 149.278 405.154 149.278C403.725 149.278 402.454 149.065 401.341 148.638C400.246 148.211 399.161 147.59 398.084 146.773V158.212C398.084 158.936 397.435 159.298 396.136 159.298H395.941ZM404.207 145.632C406.415 145.577 408.076 144.77 409.189 143.211C410.303 141.652 410.859 139.389 410.859 136.42C410.859 133.229 410.331 130.77 409.273 129.044C408.234 127.3 406.731 126.428 404.764 126.428C403.669 126.428 402.528 126.725 401.341 127.319C400.172 127.913 399.086 128.757 398.084 129.852V143.406C399.903 144.89 401.944 145.632 404.207 145.632ZM434.542 149.278C430.813 149.278 427.965 148.165 425.998 145.938C424.049 143.693 423.075 140.437 423.075 136.169C423.075 131.902 424.068 128.618 426.053 126.317C428.039 123.998 430.868 122.838 434.542 122.838C438.179 122.838 440.962 123.988 442.892 126.289C444.821 128.571 445.786 131.865 445.786 136.169C445.786 140.456 444.831 143.712 442.92 145.938C441.027 148.165 438.235 149.278 434.542 149.278ZM434.403 145.716C436.815 145.716 438.596 144.937 439.747 143.378C440.897 141.801 441.472 139.37 441.472 136.086C441.472 132.783 440.897 130.343 439.747 128.766C438.596 127.189 436.815 126.4 434.403 126.4C432.009 126.4 430.247 127.189 429.115 128.766C427.983 130.325 427.417 132.765 427.417 136.086C427.417 139.389 427.974 141.819 429.087 143.378C430.219 144.937 431.991 145.716 434.403 145.716ZM462.483 149.278C460.832 149.278 459.357 148.777 458.058 147.775C456.759 146.773 456.11 145.001 456.11 142.459V126.679H453.633C453.28 126.679 453.02 126.567 452.853 126.345C452.705 126.104 452.631 125.723 452.631 125.204V124.591C452.631 124.072 452.705 123.701 452.853 123.478C453.02 123.237 453.28 123.116 453.633 123.116H456.11L456.694 117.939C456.731 117.216 457.26 116.854 458.281 116.854H458.754C459.273 116.854 459.654 116.947 459.895 117.132C460.136 117.299 460.257 117.568 460.257 117.939V123.116H464.404C464.756 123.116 465.007 123.237 465.155 123.478C465.322 123.701 465.406 124.072 465.406 124.591V125.204C465.406 125.723 465.322 126.104 465.155 126.345C465.007 126.567 464.756 126.679 464.404 126.679H460.257V142.07C460.257 143.424 460.489 144.371 460.953 144.909C461.435 145.447 462.084 145.716 462.901 145.716C463.532 145.716 464.014 145.679 464.348 145.604C464.701 145.53 464.933 145.493 465.044 145.493C465.341 145.493 465.582 145.79 465.767 146.384C465.972 146.978 466.074 147.451 466.074 147.803C466.074 148.787 464.877 149.278 462.483 149.278ZM476.341 116.882C475.024 116.882 474.365 116.52 474.365 115.796V112.874C474.365 112.15 475.024 111.789 476.341 111.789H476.926C478.262 111.789 478.93 112.15 478.93 112.874V115.796C478.93 116.52 478.262 116.882 476.926 116.882H476.341ZM476.536 149.083C475.219 149.083 474.56 148.722 474.56 147.998V124.118C474.56 123.395 475.219 123.033 476.536 123.033H476.731C478.067 123.033 478.735 123.395 478.735 124.118V147.998C478.735 148.722 478.067 149.083 476.731 149.083H476.536ZM492.788 149.083C492.101 149.083 491.6 149 491.285 148.833C490.97 148.647 490.812 148.369 490.812 147.998V126.679H488.836C488.168 126.679 487.834 126.187 487.834 125.204V124.591C487.834 123.608 488.168 123.116 488.836 123.116H490.812V118.413C490.812 115.815 491.452 114.034 492.732 113.069C494.031 112.085 495.515 111.594 497.185 111.594C499.597 111.594 500.804 112.095 500.804 113.097C500.804 113.264 500.757 113.542 500.664 113.932C500.59 114.303 500.47 114.637 500.303 114.934C500.154 115.23 499.978 115.379 499.774 115.379C499.662 115.379 499.43 115.342 499.078 115.268C498.725 115.193 498.243 115.156 497.631 115.156C497.074 115.156 496.601 115.24 496.211 115.407C495.84 115.574 495.534 115.926 495.293 116.464C495.07 117.002 494.959 117.782 494.959 118.802V123.116H499.273C499.625 123.116 499.876 123.237 500.024 123.478C500.191 123.701 500.275 124.072 500.275 124.591V125.204C500.275 125.723 500.191 126.104 500.024 126.345C499.876 126.567 499.625 126.679 499.273 126.679H494.959V147.998C494.959 148.369 494.801 148.647 494.486 148.833C494.17 149 493.679 149.083 493.011 149.083H492.788ZM510.765 159.298C509.689 159.298 509.151 159.029 509.151 158.491C509.151 158.361 509.225 158.092 509.374 157.684L513.521 147.608L504.865 124.508C504.846 124.434 504.818 124.332 504.781 124.202C504.744 124.053 504.726 123.942 504.726 123.868C504.726 123.608 504.902 123.404 505.254 123.255C505.607 123.107 506.145 123.033 506.869 123.033H507.258C508.372 123.033 509.03 123.292 509.234 123.812L514.272 137.227C514.717 138.396 515.246 140.057 515.858 142.209H515.942L516.526 140.372C516.619 140.094 516.777 139.621 517 138.953C517.222 138.266 517.426 137.691 517.612 137.227L522.538 123.812C522.705 123.292 523.382 123.033 524.57 123.033H524.737C526.036 123.033 526.685 123.311 526.685 123.868C526.685 123.998 526.639 124.22 526.546 124.536L513.855 158.268C513.558 158.955 512.778 159.298 511.517 159.298H510.765Z" fill="#303030"/>
<path d="M288.254 77.4203C288.944 77.4154 289.431 78.0946 289.206 78.7469L249.342 194.074C248.991 195.09 247.504 194.913 247.402 193.843L239.74 113.865C239.706 113.507 239.482 113.195 239.154 113.048L165.832 80.1971C164.852 79.7577 165.16 78.2921 166.234 78.2845L288.254 77.4203Z" fill="#D18C8C"/>
<path d="M207.171 135.129C207.843 135.139 208.314 135.796 208.109 136.435L191.935 186.765C191.639 187.685 190.338 187.692 190.033 186.774L179.853 156.093C179.789 155.9 179.668 155.732 179.506 155.609L153.696 136.147C152.924 135.564 153.346 134.334 154.313 134.348L207.171 135.129Z" fill="#D9AFAF"/>
<line x1="324" y1="169" x2="530" y2="169" stroke="#DBDBDB" stroke-width="2"/>
</svg>
